<svg preserveAspectRatio="none" width="100%" height="100%" overflow="visible" style="display: block;" viewBox="0 0 13 12.5" fill="none" xmlns="http://www.w3.org/2000/svg">
<path id="Vector" d="M12 3H9.5C9.5 2.20435 9.18393 1.44129 8.62132 0.87868C8.05871 0.31607 7.29565 0 6.5 0C5.70435 0 4.94129 0.31607 4.37868 0.87868C3.81607 1.44129 3.5 2.20435 3.5 3H1C0.734784 3 0.48043 3.10536 0.292893 3.29289C0.105357 3.48043 0 3.73478 0 4V11.5C0 11.7652 0.105357 12.0196 0.292893 12.2071C0.48043 12.3946 0.734784 12.5 1 12.5H12C12.2652 12.5 12.5196 12.3946 12.7071 12.2071C12.8946 12.0196 13 11.7652 13 11.5V4C13 3.73478 12.8946 3.48043 12.7071 3.29289C12.5196 3.10536 12.2652 3 12 3ZM6.5 1C7.03043 1 7.53914 1.21071 7.91421 1.58579C8.28929 1.96086 8.5 2.46957 8.5 3H4.5C4.5 2.46957 4.71071 1.96086 5.08579 1.58579C5.46086 1.21071 5.96957 1 6.5 1ZM12 11.5H1V4H3.5V5C3.5 5.13261 3.55268 5.25979 3.64645 5.35355C3.74021 5.44732 3.86739 5.5 4 5.5C4.13261 5.5 4.25979 5.44732 4.35355 5.35355C4.44732 5.25979 4.5 5.13261 4.5 5V4H8.5V5C8.5 5.13261 8.55268 5.25979 8.64645 5.35355C8.74021 5.44732 8.86739 5.5 9 5.5C9.13261 5.5 9.25979 5.44732 9.35355 5.35355C9.44732 5.25979 9.5 5.13261 9.5 5V4H12V11.5Z" fill="var(--fill-0, black)"/>
</svg>
