<svg preserveAspectRatio="none" width="100%" height="100%" overflow="visible" style="display: block;" viewBox="0 0 19.6119 20" fill="none" xmlns="http://www.w3.org/2000/svg">
<path id="Vector" fill-rule="evenodd" clip-rule="evenodd" d="M9.80595 0C7.12143 0 4.64307 1.02252 2.82269 2.87828C1.00231 4.73404 0 7.26205 0 10.0011C0 12.7401 1.00231 15.2681 2.82269 17.1217C4.64307 18.9775 7.12362 20 9.80595 20C12.4883 20 14.9688 18.9775 16.7892 17.1217C18.6096 15.266 19.6119 12.738 19.6119 10.0011C19.6119 7.26422 18.6096 4.73404 16.7892 2.87828C14.9688 1.02252 12.4883 0 9.80595 0ZM16.5172 9.99891C16.5172 14.0281 13.6309 17.0652 9.80595 17.0652C5.98095 17.0652 3.09465 14.0281 3.09465 9.99891C3.09465 5.96976 5.98095 2.93049 9.80595 2.93049C13.6309 2.93049 16.5172 5.96976 16.5172 9.99891Z" fill="var(--fill-0, black)"/>
</svg>
