<svg preserveAspectRatio="none" width="100%" height="100%" overflow="visible" style="display: block;" viewBox="0 0 17.0315 19.9988" fill="none" xmlns="http://www.w3.org/2000/svg">
<path id="Vector" d="M10.0701 17.0635C6.24514 17.2027 3.25138 14.2722 3.10224 10.2452C2.9531 6.21827 5.72315 3.07675 9.54815 2.93751C11.3905 2.87007 13.0354 3.52056 14.268 4.65838L16.5139 2.61988C14.6277 0.838087 12.1164 -0.0908813 9.43849 0.00701927C6.75617 0.10492 4.3151 1.21664 2.5649 3.13549C0.814698 5.05651 -0.0933011 7.61933 0.00758762 10.3562C0.108476 13.0909 1.2029 15.5819 3.09128 17.3702C4.97965 19.1585 7.49529 20.0897 10.1776 19.9918C12.8512 19.8939 15.2835 18.7887 17.0315 16.8807L14.7066 14.9445C13.5574 16.2041 11.941 16.9939 10.0701 17.0613V17.0635Z" fill="var(--fill-0, black)"/>
</svg>
