<svg preserveAspectRatio="none" width="100%" height="100%" overflow="visible" style="display: block;" viewBox="0 0 17.875 17.875" fill="none" xmlns="http://www.w3.org/2000/svg">
<path id="Vector" d="M8.9375 0C7.16983 0 5.44186 0.524175 3.97209 1.50624C2.50233 2.48831 1.35679 3.88415 0.680331 5.51727C0.00387248 7.15038 -0.17312 8.94741 0.171736 10.6811C0.516591 12.4148 1.36781 14.0073 2.61774 15.2573C3.86767 16.5072 5.46018 17.3584 7.19388 17.7033C8.92759 18.0481 10.7246 17.8711 12.3577 17.1947C13.9909 16.5182 15.3867 15.3727 16.3688 13.9029C17.3508 12.4331 17.875 10.7052 17.875 8.9375C17.8725 6.5679 16.9301 4.29606 15.2545 2.6205C13.5789 0.944933 11.3071 0.00250234 8.9375 0ZM11.6076 12.5245C11.5223 12.6856 11.3765 12.8063 11.2023 12.86C11.0281 12.9136 10.8397 12.8959 10.6786 12.8107C10.1434 12.523 9.54517 12.3724 8.9375 12.3724C8.32984 12.3724 7.73165 12.523 7.19641 12.8107C7.03571 12.8915 6.84974 12.9061 6.6784 12.8514C6.50707 12.7966 6.364 12.6769 6.27989 12.5179C6.19579 12.3589 6.17734 12.1733 6.22851 12.0009C6.27967 11.8284 6.39638 11.6829 6.5536 11.5955C7.28815 11.207 8.10653 11.0039 8.9375 11.0039C9.76848 11.0039 10.5869 11.207 11.3214 11.5955C11.4825 11.6808 11.6032 11.8266 11.6568 12.0008C11.7105 12.175 11.6928 12.3634 11.6076 12.5245ZM12.9826 10.1183C12.8969 10.2792 12.7508 10.3994 12.5764 10.4526C12.402 10.5058 12.2137 10.4875 12.0527 10.4019C11.0941 9.89112 10.0246 9.62397 8.93836 9.62397C7.85216 9.62397 6.78262 9.89112 5.82399 10.4019C5.66342 10.4839 5.47707 10.4995 5.30507 10.4455C5.13308 10.3914 4.98921 10.2719 4.90446 10.1128C4.8197 9.95366 4.80086 9.7676 4.85197 9.5947C4.90309 9.4218 5.02008 9.2759 5.17774 9.18844C6.33515 8.57124 7.62667 8.2484 8.93836 8.2484C10.2501 8.2484 11.5416 8.57124 12.699 9.18844C12.7788 9.23095 12.8494 9.2888 12.9069 9.35866C12.9643 9.42852 13.0074 9.50902 13.0336 9.59556C13.0599 9.68209 13.0688 9.77296 13.0599 9.86295C13.051 9.95294 13.0244 10.0403 12.9817 10.12L12.9826 10.1183ZM14.3576 7.71203C14.3151 7.79174 14.2573 7.86228 14.1875 7.91963C14.1177 7.97698 14.0373 8.02002 13.9508 8.04627C13.8644 8.07253 13.7736 8.0815 13.6837 8.07266C13.5938 8.06382 13.5065 8.03735 13.4269 7.99477C12.0463 7.25532 10.5045 6.86839 8.93836 6.86839C7.37225 6.86839 5.8304 7.25532 4.44985 7.99477C4.28894 8.08069 4.10048 8.09918 3.92594 8.04615C3.7514 7.99313 3.60507 7.87294 3.51914 7.71203C3.43322 7.55112 3.41473 7.36266 3.46776 7.18812C3.52078 7.01358 3.64097 6.86725 3.80188 6.78133C5.38191 5.93572 7.14628 5.49328 8.93836 5.49328C10.7304 5.49328 12.4948 5.93572 14.0748 6.78133C14.1547 6.82392 14.2254 6.88185 14.2828 6.95181C14.3402 7.02177 14.3832 7.10238 14.4094 7.18901C14.4356 7.27563 14.4444 7.36658 14.4354 7.45663C14.4263 7.54668 14.3996 7.63406 14.3567 7.71375L14.3576 7.71203Z" fill="var(--fill-0, black)"/>
</svg>
