<svg preserveAspectRatio="none" width="100%" height="100%" overflow="visible" style="display: block;" viewBox="0 0 21.125 21.125" fill="none" xmlns="http://www.w3.org/2000/svg">
<path id="Vector" d="M10.5625 0C8.47344 0 6.43129 0.61948 4.69429 1.7801C2.9573 2.94072 1.60348 4.59036 0.804027 6.52041C0.00457656 8.45045 -0.204596 10.5742 0.20296 12.6231C0.610517 14.6721 1.6165 16.5541 3.09369 18.0313C4.57088 19.5085 6.45294 20.5145 8.50186 20.922C10.5508 21.3296 12.6746 21.1204 14.6046 20.321C16.5346 19.5215 18.1843 18.1677 19.3449 16.4307C20.5055 14.6937 21.125 12.6516 21.125 10.5625C21.122 7.76206 20.0083 5.07716 18.0281 3.09695C16.0478 1.11674 13.3629 0.00295732 10.5625 0ZM13.7181 14.8017C13.6173 14.9921 13.445 15.1347 13.2391 15.1981C13.0332 15.2616 12.8106 15.2406 12.6202 15.1399C11.9876 14.7999 11.2807 14.6219 10.5625 14.6219C9.84435 14.6219 9.1374 14.7999 8.50485 15.1399C8.31493 15.2354 8.09515 15.2527 7.89266 15.188C7.69017 15.1233 7.52109 14.9818 7.42169 14.7939C7.32229 14.606 7.30049 14.3867 7.36096 14.1829C7.42143 13.9791 7.55936 13.8071 7.74516 13.7038C8.61327 13.2447 9.58044 13.0046 10.5625 13.0046C11.5446 13.0046 12.5117 13.2447 13.3798 13.7038C13.5703 13.8046 13.7128 13.9769 13.7763 14.1827C13.8397 14.3886 13.8187 14.6113 13.7181 14.8017ZM15.3431 11.958C15.2417 12.1481 15.0691 12.2902 14.863 12.3531C14.6569 12.4159 14.4343 12.3944 14.2441 12.2931C13.1112 11.6895 11.8472 11.3738 10.5635 11.3738C9.27982 11.3738 8.01582 11.6895 6.88289 12.2931C6.69314 12.39 6.4729 12.4085 6.26963 12.3446C6.06637 12.2807 5.89634 12.1395 5.79617 11.9515C5.69601 11.7634 5.67374 11.5435 5.73415 11.3392C5.79456 11.1349 5.93282 10.9624 6.11914 10.8591C7.48699 10.1296 9.01334 9.7481 10.5635 9.7481C12.1137 9.7481 13.64 10.1296 15.0079 10.8591C15.1022 10.9093 15.1857 10.9777 15.2536 11.0602C15.3214 11.1428 15.3724 11.2379 15.4034 11.3402C15.4344 11.4425 15.445 11.5499 15.4345 11.6562C15.4239 11.7626 15.3925 11.8658 15.342 11.96L15.3431 11.958ZM16.9681 9.11422C16.9178 9.20841 16.8495 9.29178 16.767 9.35956C16.6845 9.42734 16.5895 9.4782 16.4873 9.50923C16.3852 9.54026 16.2779 9.55086 16.1717 9.54042C16.0654 9.52997 15.9623 9.49869 15.8681 9.44836C14.2366 8.57446 12.4144 8.11719 10.5635 8.11719C8.71266 8.11719 6.89047 8.57446 5.25891 9.44836C5.06874 9.54991 4.84602 9.57175 4.63975 9.50909C4.43347 9.44643 4.26054 9.30439 4.15899 9.11422C4.05744 8.92405 4.03559 8.70133 4.09826 8.49505C4.16092 8.28878 4.30296 8.11585 4.49313 8.0143C6.36044 7.01495 8.4456 6.49206 10.5635 6.49206C12.6814 6.49206 14.7666 7.01495 16.6339 8.0143C16.7283 8.06463 16.8118 8.1331 16.8796 8.21578C16.9475 8.29845 16.9984 8.39372 17.0293 8.4961C17.0603 8.59848 17.0707 8.70596 17.06 8.81238C17.0493 8.9188 17.0177 9.02207 16.967 9.11625L16.9681 9.11422Z" fill="var(--fill-0, black)"/>
</svg>
