<svg preserveAspectRatio="none" width="100%" height="100%" overflow="visible" style="display: block;" viewBox="0 0 19.25 15.125" fill="none" xmlns="http://www.w3.org/2000/svg">
<path id="Vector" d="M18.7627 2.53688C18.6818 2.22007 18.5266 1.92705 18.3101 1.682C18.0936 1.43695 17.8219 1.24689 17.5175 1.1275C14.5716 -0.0103093 9.88281 3.269e-06 9.625 3.269e-06C9.36719 3.269e-06 4.67844 -0.0103093 1.7325 1.1275C1.42808 1.24689 1.1564 1.43695 0.939894 1.682C0.723383 1.92705 0.568241 2.22007 0.487266 2.53688C0.264688 3.39453 0 4.96203 0 7.5625C0 10.163 0.264688 11.7305 0.487266 12.5881C0.56812 12.9051 0.723207 13.1983 0.939725 13.4435C1.15624 13.6887 1.42798 13.8789 1.7325 13.9984C4.55469 15.0872 8.97187 15.125 9.56828 15.125H9.68172C10.2781 15.125 14.6979 15.0872 17.5175 13.9984C17.822 13.8789 18.0938 13.6887 18.3103 13.4435C18.5268 13.1983 18.6819 12.9051 18.7627 12.5881C18.9853 11.7288 19.25 10.163 19.25 7.5625C19.25 4.96203 18.9853 3.39453 18.7627 2.53688ZM12.4257 8.12282L8.9882 10.5291C8.88537 10.6011 8.76478 10.6436 8.63951 10.652C8.51424 10.6603 8.38907 10.6342 8.27759 10.5765C8.1661 10.5187 8.07255 10.4316 8.00709 10.3244C7.94163 10.2173 7.90676 10.0943 7.90625 9.96875V5.15625C7.90629 5.03049 7.94082 4.90714 8.00609 4.79963C8.07136 4.69213 8.16488 4.60459 8.27645 4.54655C8.38802 4.4885 8.51338 4.46217 8.63887 4.47043C8.76437 4.47868 8.8852 4.5212 8.9882 4.59336L12.4257 6.99961C12.5161 7.06302 12.5899 7.14728 12.6409 7.24526C12.6919 7.34325 12.7185 7.45206 12.7185 7.5625C12.7185 7.67294 12.6919 7.78176 12.6409 7.87974C12.5899 7.97772 12.5161 8.06198 12.4257 8.12539V8.12282Z" fill="var(--fill-0, black)"/>
</svg>
