<svg preserveAspectRatio="none" width="100%" height="100%" overflow="visible" style="display: block;" viewBox="0 0 22.75 17.875" fill="none" xmlns="http://www.w3.org/2000/svg">
<path id="Vector" d="M22.1741 2.99813C22.0784 2.62372 21.8951 2.27742 21.6392 1.98782C21.3833 1.69821 21.0623 1.4736 20.7025 1.3325C17.2209 -0.0121837 11.6797 3.86336e-06 11.375 3.86336e-06C11.0703 3.86336e-06 5.52906 -0.0121837 2.0475 1.3325C1.68773 1.4736 1.36666 1.69821 1.11078 1.98782C0.854908 2.27742 0.671557 2.62372 0.575859 2.99813C0.312813 4.01172 0 5.86422 0 8.9375C0 12.0108 0.312813 13.8633 0.575859 14.8769C0.671414 15.2515 0.8547 15.598 1.11058 15.8878C1.36647 16.1776 1.68761 16.4023 2.0475 16.5435C5.38281 17.8303 10.6031 17.875 11.308 17.875H11.442C12.1469 17.875 17.3702 17.8303 20.7025 16.5435C21.0624 16.4023 21.3835 16.1776 21.6394 15.8878C21.8953 15.598 22.0786 15.2515 22.1741 14.8769C22.4372 13.8613 22.75 12.0108 22.75 8.9375C22.75 5.86422 22.4372 4.01172 22.1741 2.99813ZM14.6849 9.59969L10.6224 12.4434C10.5009 12.5286 10.3584 12.5788 10.2103 12.5887C10.0623 12.5986 9.91436 12.5677 9.7826 12.4995C9.65085 12.4312 9.54029 12.3282 9.46293 12.2016C9.38556 12.075 9.34435 11.9296 9.34375 11.7813V6.09375C9.34379 5.94512 9.3846 5.79935 9.46174 5.6723C9.53889 5.54525 9.6494 5.44179 9.78126 5.37319C9.91311 5.30459 10.0613 5.27348 10.2096 5.28323C10.3579 5.29299 10.5007 5.34324 10.6224 5.42852L14.6849 8.27227C14.7918 8.34721 14.879 8.44679 14.9393 8.56259C14.9995 8.67838 15.0309 8.80698 15.0309 8.9375C15.0309 9.06803 14.9995 9.19663 14.9393 9.31242C14.879 9.42822 14.7918 9.5278 14.6849 9.60274V9.59969Z" fill="var(--fill-0, black)"/>
</svg>
